<svg version="1.0" xmlns="http://www.w3.org/2000/svg"
 width="840.000000pt" height="880.000000pt" viewBox="0 0 840.000000 880.000000"
 preserveAspectRatio="xMidYMid meet">

<g transform="translate(0.000000,880.000000) scale(0.100000,-0.100000)"
fill="#000000" stroke="none">
<path d="M3895 8389 c-823 -69 -1562 -362 -2207 -877 -172 -137 -465 -430
-602 -602 -131 -164 -289 -400 -387 -575 -578 -1038 -658 -2310 -214 -3415
443 -1103 1340 -1948 2465 -2320 1050 -347 2223 -237 3185 299 326 182 618
403 891 675 398 399 685 834 892 1351 532 1336 303 2849 -604 3985 -140 174
-432 467 -604 604 -611 487 -1301 774 -2070 862 -155 18 -598 26 -745 13z
m704 -763 c611 -81 1159 -312 1636 -692 141 -113 386 -358 499 -499 389 -489
619 -1044 698 -1685 19 -153 16 -582 -5 -742 -109 -824 -492 -1540 -1107
-2070 -502 -431 -1091 -688 -1770 -770 -158 -19 -565 -16 -735 5 -757 95
-1439 435 -1957 976 -780 813 -1082 1957 -808 3051 160 636 528 1231 1030
1662 522 448 1147 711 1850 778 131 12 531 4 669 -14z"/>
<path d="M2592 6381 c-274 -95 -443 -501 -377 -906 68 -419 356 -667 631 -541
112 51 200 149 268 298 62 135 81 231 81 418 0 196 -20 290 -90 435 -56 114
-119 193 -196 244 -106 71 -212 88 -317 52z"/>
<path d="M5592 6381 c-165 -57 -294 -225 -359 -467 -24 -88 -27 -117 -27 -264
0 -147 3 -176 27 -265 101 -378 364 -567 620 -447 283 132 426 622 300 1027
-99 319 -336 494 -561 416z"/>
<path d="M1705 4323 c4 -32 15 -112 26 -177 172 -1061 925 -1924 1894 -2171
223 -58 324 -70 575 -70 247 1 353 13 559 64 688 173 1282 657 1626 1324 109
210 187 416 239 628 37 151 85 459 72 459 -3 0 -60 -30 -128 -67 -465 -253
-1020 -439 -1573 -527 -501 -80 -1074 -82 -1555 -6 -583 93 -1135 276 -1610
535 -65 36 -122 65 -125 65 -4 0 -4 -26 0 -57z"/>
</g>
</svg>
