<svg version="1.0" xmlns="http://www.w3.org/2000/svg"
 width="840.000000pt" height="930.000000pt" viewBox="0 0 840.000000 930.000000"
 preserveAspectRatio="xMidYMid meet">

<g transform="translate(0.000000,930.000000) scale(0.100000,-0.100000)"
fill="red" stroke="none">
<path d="M395 8854 c-76 -177 -146 -451 -171 -670 -20 -169 -14 -493 11 -654
56 -359 193 -712 395 -1014 l92 -137 -95 -192 c-178 -359 -289 -691 -356
-1067 -47 -265 -56 -377 -56 -715 0 -325 8 -420 51 -675 145 -853 586 -1662
1225 -2249 634 -583 1414 -939 2274 -1038 188 -21 642 -24 825 -5 994 106
1890 553 2549 1272 584 638 941 1429 1033 2285 17 160 17 695 0 840 -59 496
-184 920 -399 1352 l-95 192 92 138 c157 235 283 517 349 784 46 186 62 311
68 539 6 232 -9 401 -53 599 -40 181 -132 453 -149 441 -4 -3 -34 -57 -67
-120 -248 -478 -645 -867 -1123 -1100 -77 -38 -147 -70 -155 -72 -9 -2 -71 35
-138 82 -697 485 -1472 730 -2310 730 -825 -1 -1601 -247 -2294 -730 -67 -47
-129 -84 -138 -82 -8 2 -78 34 -155 72 -478 233 -881 629 -1127 1108 -33 64
-62 119 -64 121 -1 2 -10 -14 -19 -35z m4235 -1228 c394 -59 708 -158 1040
-326 770 -391 1353 -1075 1618 -1900 107 -332 152 -627 152 -990 0 -374 -52
-698 -168 -1040 -279 -823 -891 -1512 -1675 -1885 -420 -199 -838 -299 -1307
-312 -551 -15 -1028 89 -1525 332 -758 370 -1356 1048 -1631 1850 -131 380
-180 705 -171 1128 9 418 71 739 217 1110 385 981 1227 1717 2251 1967 137 33
324 66 454 79 137 14 620 6 745 -13z"/>
<path d="M2377 6394 c-30 -9 -66 -32 -97 -62 -102 -99 -103 -249 -1 -351 40
-40 57 -48 236 -104 93 -29 301 -111 314 -123 2 -2 -10 -24 -28 -49 -78 -108
-113 -250 -92 -372 72 -413 579 -564 861 -257 190 208 168 524 -54 787 -161
192 -503 384 -904 508 -120 37 -175 42 -235 23z"/>
<path d="M5843 6385 c-186 -49 -475 -168 -626 -258 -275 -164 -443 -356 -497
-571 -49 -192 -4 -363 129 -497 74 -74 140 -112 233 -134 283 -67 557 116 609
406 22 123 -16 274 -92 370 -18 23 -28 44 -23 49 20 19 202 92 341 136 157 49
199 73 239 133 100 152 4 357 -181 384 -27 4 -71 -2 -132 -18z"/>
<path d="M2380 3319 c-180 -108 -314 -195 -312 -202 6 -19 98 -153 171 -247
403 -520 1043 -873 1700 -940 132 -13 390 -13 522 0 480 49 966 254 1339 568
179 150 432 438 517 590 l22 40 -320 192 c-176 105 -322 190 -323 188 -1 -1
-22 -32 -46 -68 -161 -243 -408 -459 -673 -591 -248 -122 -498 -180 -778 -180
-357 0 -675 97 -979 299 -149 99 -366 313 -455 450 -33 50 -62 91 -65 91 -3 0
-147 -85 -320 -190z"/>
</g>
</svg>
